This is a stereoscopic 3D rip of IMAX Ultimate G's: Zac's Flying Dream, for new 3D TVs or computers with Nvidia 3D Vision. Tested with Stereoscopic Player. Enjoy!

Title: Ultimate G's: Zac's Flying Dream (2000)
Rated: Not Rated
Runtime: 37 min
Genre: Short | Documentary

IMDB Page: http://www.imdb.com/title/tt0240143/

General
Unique ID : 173609093126295405239296946408172726193 (0x829BE525BB38A8E28B753573C8F2A7B1)
Complete name : [filepath]\IMAX Ultimate G's - Zac's Flying Dream 3D.mkv
Format : Matroska
File size : 2.90 GiB
Duration : 37mn 13s
Overall bit rate : 11.1 Mbps
Encoded date : UTC 2010-12-11 17:09:16
Writing application : mkvmerge v4.3.0 ('Escape from the Island') gemaakt op Sep 5 2010 10:30:51
Writing library : libebml v1.0.0 + libmatroska v1.0.0

Video
ID : 1
Format : AVC
Format/Info : Advanced Video Codec
Format profile : High@L4.0
Format settings, CABAC : Yes
Format settings, ReFrames : 4 frames
Codec ID : V_MPEG4/ISO/AVC
Duration : 37mn 13s
Bit rate : 9 403 Kbps
Nominal bit rate : 10 000 Kbps
Width : 1 920 pixels
Height : 1 080 pixels
Display aspect ratio : 16:9
Frame rate mode : Variable
Frame rate : 23.976 fps
Color space : YUV
Chroma subsampling : 4:2:0
Bit depth : 8 bits
Scan type : Progressive
Bits/(Pixel*Frame) : 0.189
Stream size : 2.45 GiB (84%)
Writing library : x264 core 107 r1745 4785e8e

Audio
ID : 2
Format : DTS
Format/Info : Digital Theater Systems
Codec ID : A_DTS
Duration : 37mn 13s
Bit rate mode : Constant
Bit rate : 1 510 Kbps
Channel(s) : 6 channels
Channel positions : Front: L C R, Side: L R, LFE
Sampling rate : 48.0 KHz
Bit depth : 24 bits
Compression mode : Lossy
Stream size : 402 MiB (14%)

